{"title":"Raman Raghav 2.0 (2016) HQ 1080p Blu-ray x264  DTS-HD 5.1 ESub -","uid":15770706,"size":13997652908,"categoryP":"video","categoryS":"hd___movies","magnet":"?xt=urn:btih:939021cef71c583e1cd3a1640a44ba9b13091fa5&amp;dn=Raman+Raghav+2.0+%282016%29+HQ+1080p+Blu-ray+x264++DTS-HD+5.1+ESub+-&amp;tr=udp%3A%2F%2Ftracker.leechers-paradise.org%3A6969&amp;tr=udp%3A%2F%2Fzer0day.ch%3A1337&amp;tr=udp%3A%2F%2Fopen.demonii.com%3A1337&amp;tr=udp%3A%2F%2Ftracker.coppersurfer.tk%3A6969&amp;tr=udp%3A%2F%2Fexodus.desync.com%3A6969","seeders":4,"leechers":7,"uploader":"SaM","files":3,"time":1473200969,"description":"** Raman Raghav - 2.0 **\r\n\r\n** 2016**\r\n\r\n** HQ 1080p / Blu-ray / x264\r\n\r\nHindi DTS-HD Master Audio 5.1 **\r\n\r\n** English Subtitle(s) **\r\n\r\n\r\n\r\n[ SCREENS ]\r\n \nhttp://extraimago.com/image/wRRo \nhttp://extraimago.com/image/wRRk \nhttp://extraimago.com/image/wRRH \nhttp://extraimago.com/image/wRRF \nhttp://extraimago.com/image/wRRD \nhttp://extraimago.com/image/wRR5 \nhttp://extraimago.com/image/wRRg \nhttp://extraimago.com/image/wRRX \nhttp://extraimago.com/image/wRRP \nhttp://extraimago.com/image/wRRG \nhttp://extraimago.com/image/wRRr \nhttp://extraimago.com/image/wRRp\r\n\r\n[ Info ]\r\n\r\nSource : BD50 @ DDR\r\nGeneral\r\nFormat : Matroska\r\nFile size : 13.0 GiB\r\nDuration : 2 h 13 min\r\nOverall bit rate : 13.9 Mb/s\r\n\r\nVideo\r\nFormat : AVC\r\nFormat/Info : Advanced Video Codec\r\nFormat profile :   \r\nFormat settings, CABAC : Yes\r\nFormat settings, ReFrames : 5 frames\r\nCodec ID : V_MPEG4/ISO/AVC\r\nDuration : 2 h 13 min\r\nBit rate : 10 000 kb/s\r\nWidth : 1 920 pixels\r\nHeight : 800 pixels\r\nDisplay aspect ratio : 2.40:1\r\nFrame rate mode : Constant\r\nFrame rate : 24.000 FPS\r\ncolor space : YUV\r\nChroma subsampling : 4:2:0\r\nBit depth : 8 bits\r\nScan type : Progressive\r\nBits/(Pixel*Frame) : 0.271\r\nStream size : 9.31 GiB (72%)\r\nDefault : Yes\r\nForced : No\r\ncolor range : Limited\r\ncolor primaries : BT.709\r\nTransfer characteristics : BT.709\r\nMatrix coefficients : BT.709\r\n\r\nAudio\r\nFormat : DTS\r\nFormat/Info : Digital Theater Systems\r\nFormat profile : MA / Core\r\nMode : 16\r\nFormat settings, Endianness : Big\r\nCodec ID : A_DTS\r\nDuration : 2 h 13 min\r\nBit rate mode : Variable / Constant\r\nBit rate : 3 937 kb/s / 1 509 kb/s\r\nChannel(s) : 6 channels\r\nChannel positions : Front: L C R, Side: L R, LFE\r\nSampling rate : 48.0 kHz\r\nFrame rate : 93.750 FPS (512 spf)\r\nBit depth : 24 bits\r\nCompression mode : Lossless / Lossy\r\nStream size : 3.67 GiB (28%)\r\nLanguage : Hindi\r\nDefault : Yes\r\nForced : No\r\n\r\nChapters : YES","torrent":{"xt":"urn:btih:939021cef71c583e1cd3a1640a44ba9b13091fa5","amp;dn":"Raman+Raghav+2.0+%282016%29+HQ+1080p+Blu-ray+x264++DTS-HD+5.1+ESub+-","amp;tr":["udp%3A%2F%2Ftracker.leechers-paradise.org%3A6969","udp%3A%2F%2Fzer0day.ch%3A1337","udp%3A%2F%2Fopen.demonii.com%3A1337","udp%3A%2F%2Ftracker.coppersurfer.tk%3A6969","udp%3A%2F%2Fexodus.desync.com%3A6969"],"infoHash":"939021cef71c583e1cd3a1640a44ba9b13091fa5","infoHashBuffer":{"type":"Buffer","data":[147,144,33,206,247,28,88,62,28,211,161,100,10,68,186,155,19,9,31,165]},"announce":[],"urlList":[]}}